<?xml version="1.0" encoding="UTF-8"?>
<svg id="Layer_1" data-name="Layer 1" xmlns="http://www.w3.org/2000/svg" xmlns:xlink="http://www.w3.org/1999/xlink" viewBox="0 0 350 350">
  <defs>
    <mask id="mask" x="-18.48" y="15.66" width="397.23" height="402.73" maskUnits="userSpaceOnUse">
      <path d="m238.37,15.66h-126.07c-43.1,0-78.05,34.94-78.05,78.05v126.07c0,29.79,16.7,55.68,41.24,68.83-2.13-6.23-1.71-13.3,1.51-20.3.1-.22.21-.45.32-.68-1.65-3.31-2.89-7.32-3.31-12.15-4.85-3.71-6.6-7.1-7.38-8.62-3.86-7.47-3.16-15.11-.99-21.78-4.89-6.59-8.47-15.09-5.97-24.64,3.86-14.74,18.76-28.44,42.78-25.83,9.93-18.53,25.73-33.38,44.89-42.16-3.51-13.77-1.02-27.34,7.31-36.84,5.95-6.79,12.93-9.29,15.22-10.11,17.71-6.35,35.99,1.53,46.25,12.15,9.37,9.69,11.68,20.86,12.44,24.53.76,3.69,1.17,7.49,1.22,11.37,16.56,8.09,30.47,20.81,40.15,36.91,2.09,2.93,6.65,10.05,10.12,20.61,11,18.38,14.34,36.96,9.64,53.86-3.46,12.45-10.9,25.72-21.95,30.29-.69,1.65-1.53,3.25-2.52,4.82,4.15,1.83,7.7,4.73,10.23,8.41,24.39-13.2,40.96-39.01,40.96-68.69v-126.07c0-43.1-34.94-78.05-78.05-78.05Z" fill="#fff"/>
    </mask>
    <linearGradient id="linear-gradient" x1="4888.23" y1="-12265.43" x2="4867.49" y2="-12389.17" gradientTransform="translate(12995.39 4099.84) rotate(-94.71)" gradientUnits="userSpaceOnUse">
      <stop offset="0" stop-color="#00427a"/>
      <stop offset=".46" stop-color="#004d8c"/>
      <stop offset=".96" stop-color="#00589c"/>
    </linearGradient>
    <linearGradient id="linear-gradient-2" x1="1658.27" y1="-59.76" x2="1637.53" y2="-183.5" gradientTransform="translate(-594.36 1745.09) rotate(-54.71)" xlink:href="#linear-gradient"/>
    <linearGradient id="linear-gradient-3" x1="2659.03" y1="-12626.3" x2="2638.3" y2="-12750.03" gradientTransform="translate(829.94 13301.9) rotate(-14.71)" xlink:href="#linear-gradient"/>
    <linearGradient id="linear-gradient-4" x1="1899.68" y1="-11695.08" x2="1878.94" y2="-11818.82" gradientTransform="translate(-6646.93 10144.18) rotate(25.29)" xlink:href="#linear-gradient"/>
    <linearGradient id="linear-gradient-5" x1="1916.56" y1="-10493.63" x2="1895.82" y2="-10617.37" gradientTransform="translate(-10344.81 2919.19) rotate(65.29)" xlink:href="#linear-gradient"/>
    <linearGradient id="linear-gradient-6" x1="2701.76" y1="-9584.11" x2="2681.02" y2="-9707.85" gradientTransform="translate(-8533.42 -4992.43) rotate(105.29)" xlink:href="#linear-gradient"/>
    <linearGradient id="linear-gradient-7" x1="3887.89" y1="-9392.1" x2="3867.15" y2="-9515.84" gradientTransform="translate(-2060.33 -9888.75) rotate(145.29)" xlink:href="#linear-gradient"/>
    <linearGradient id="linear-gradient-8" x1="4919.94" y1="-10007.44" x2="4899.2" y2="-10131.18" gradientTransform="translate(6045.65 -9478.71) rotate(-174.71)" xlink:href="#linear-gradient"/>
    <linearGradient id="linear-gradient-9" x1="5315" y1="-11142.21" x2="5294.27" y2="-11265.94" gradientTransform="translate(11991.61 -3954.18) rotate(-134.71)" xlink:href="#linear-gradient"/>
  </defs>
  <g mask="url(#mask)">
    <g>
      <path d="m378.75,208.73c-2.03,11.81-12.5,64.94-60.02,96.07-10.21,6.69-43.09,28.22-82.71,19.55-7.85-1.72-27.94-6.4-43.81-24.15-28.05-31.37-17.25-74.87-16.09-79.27,1.88,3.84,22.62,44.64,63.96,50.29,40.78,5.57,85.12-25.32,97.87-75.75,13.6,4.42,27.2,8.84,40.8,13.26Z" fill="url(#linear-gradient)"/>
      <path d="m339.2,341.84c-9.15,7.74-51.32,41.71-107.73,35.01-12.12-1.44-51.15-6.08-75.93-38.19-4.91-6.36-17.29-22.87-18.04-46.66-1.33-42.06,34.91-68.44,38.63-71.06-1.03,4.15-11.37,48.73,16.67,79.64,27.66,30.48,81.48,35.32,123.66,4.88,7.58,12.13,15.15,24.26,22.73,36.39Z" fill="url(#linear-gradient-2)"/>
      <path d="m223.34,418.39c-11.98.05-66.13-1.03-105.03-42.43-8.36-8.89-35.27-37.54-33.62-78.06.33-8.02,1.46-28.63,16.17-47.34,26.02-33.07,70.74-29.99,75.27-29.61-3.45,2.51-40.04,30.02-38.41,71.72,1.6,41.13,39.72,79.43,91.59,83.23-1.99,14.16-3.99,28.32-5.98,42.48Z" fill="url(#linear-gradient-3)"/>
      <path d="m85.39,402.55c-9.21-7.67-49.99-43.3-53.18-100.01-.69-12.19-2.89-51.43,24.42-81.41,5.41-5.94,19.52-21,42.82-25.87,41.19-8.61,73.47,22.49,76.69,25.7-4.26-.29-49.97-2.74-75.53,30.25-25.21,32.53-20.63,86.38,16.67,122.63-10.63,9.57-21.26,19.13-31.89,28.7Z" fill="url(#linear-gradient-4)"/>
      <path d="m-10.12,301.75c-2.13-11.79-10.47-65.3,23.55-110.8,7.31-9.78,30.84-41.26,71.04-46.66,7.96-1.07,28.45-3.54,49.43,7.71,37.09,19.88,41.82,64.45,42.23,68.99-3.08-2.96-36.52-34.21-77.3-25.38-40.23,8.72-71.33,52.91-66.06,104.65-14.29.5-28.58.99-42.88,1.49Z" fill="url(#linear-gradient-5)"/>
      <path d="m-18.48,163.14c5.95-10.4,33.96-56.75,89.26-69.74,11.88-2.79,50.14-11.78,84.41,9.92,6.79,4.3,24.07,15.57,32.91,37.68,15.63,39.07-9.39,76.26-11.99,79.99-.45-4.25-5.98-49.68-42.91-69.13-36.42-19.18-88.65-5.32-117.87,37.71-11.27-8.81-22.53-17.61-33.8-26.42Z" fill="url(#linear-gradient-6)"/>
      <path d="m64.21,51.58c11.24-4.14,62.49-21.65,113.21,3.95,10.9,5.5,45.98,23.21,58.29,61.85,2.44,7.65,8.42,27.4.99,50.01-13.14,39.98-56.21,52.38-60.61,53.57,2.39-3.54,27.35-41.91,11.57-80.54-15.57-38.1-64.49-61.05-114.54-46.88-2.97-13.99-5.94-27.98-8.91-41.97Z" fill="url(#linear-gradient-7)"/>
      <path d="m199.26,19.28c11.27,4.05,61.79,23.59,84.18,75.79,4.81,11.22,20.31,47.34,4.89,84.85-3.05,7.43-11.16,26.4-31.39,38.95-35.76,22.18-76.73,3.99-80.86,2.08,4.11-1.18,47.89-14.52,60.63-54.26,12.56-39.2-10.16-88.22-57.61-109.53,6.72-12.63,13.43-25.25,20.15-37.88Z" fill="url(#linear-gradient-8)"/>
      <path d="m323.48,81.34c6.03,10.35,32.17,57.78,15.77,112.17-3.52,11.69-14.87,49.32-50.79,68.14-7.11,3.73-25.52,13.05-49.08,9.66-41.65-6-61.34-46.26-63.28-50.38,3.9,1.73,46.02,19.66,81.32-2.59,34.82-21.95,48.93-74.11,26.28-120.94,13.26-5.35,26.52-10.71,39.78-16.06Z" fill="url(#linear-gradient-9)"/>
    </g>
  </g>
  <g>
    <path d="m127.41,264.28c-.13.32-.21.65-.25,1-.33,3.01-2.16,18.03-5.62,21.08-3.85,3.4-4.79,3.02-6.04,2.77s-3.07-3.64-3.07-3.64c0,0-2.89,4.19-7.18,3.33s-4.15-4.74-4.15-4.74c0,0-2.75,2.14-4.68.63-1.92-1.5-3.24-3.72-1.25-8.06,1.99-4.33,14.21-22.02,14.13-26.22s10.92-12.65,17.96-7.51c6.34,4.63,1.22,18.6.14,21.35Z" fill="#00589c"/>
    <path d="m262.01,199.91s-8.03,37.71-8.8,45.48c-.77,7.77,5.08,11.31,5.52,11.4,4.04.82,9.6-9.68,11.69-17.2,4.49-16.18-3.52-31.85-8.42-39.68Z" fill="#44b3e7"/>
    <circle cx="187.37" cy="220.03" r="76.3" fill="#5cc4f0"/>
    <path d="m177.1,144.67c25.84,4.58,31.04,2.35,31.04,2.35,1.96-7.8,2.07-14.81.83-20.79-.75-3.63-2.23-9.51-7.23-14.68-5.85-6.05-16.04-10.48-25.13-7.22-1.41.5-4.44,1.63-6.92,4.47-5.41,6.17-5.19,16.97.45,27.29-6.45,4.57-.39,9.85-.39,9.85l7.35-1.27Z" fill="#44b3e7"/>
    <path d="m213.49,236.7s-27.79,21.5-46.96-3.06c-17.71-22.7-5.85-53.43,13.72-58.29,17.65-4.39,31.87,1.11,42.6,9.95,1.7,1.4,4.23.97,5.34-.93,2.45-4.22,7.06-10.19,13.02-9.12,9.07,1.63,12.03,6.3,12.03,6.3,0,0,18.43,23.58,8.02,58.02-10.41,34.44,0,0,0,0l-47.78-2.86Z" fill="#44b3e7"/>
    <path d="m244.27,256.32s6.61,4.51,5.7,9.01c-.91,4.5-5.06,9.6-19.4,20.82,0,0-.21,2.41-2.09,3.66l-16.1,7.67s-2.19.28-3.03-1.28c0,0-14.54,4.35-27.87,2.76-13.34-1.59-27.36-4.8-31.85-11.09-4.48-6.3,7.08-19.38,47.85-28.96,0,0,8.91,15.65,19.61,15.12,10.7-.53,21.61-8.53,27.18-17.72Z" fill="#44b3e7"/>
    <path d="m131.74,217.64s2.73,15.88-11.13,32.95c-13.86,17.07-18.71,13.49-20.92,12.49-2.21-1.01-8.2-4.45-4.85-19.19,0,0-8.84-3.09-10.44-6.2-1.61-3.11.63-8.67,5.35-16.69,0,0-12.38-9.2-10.74-15.49s9.17-13.5,24.67-10.49c15.49,3.01,27.58,14.88,28.06,22.62Z" fill="#44b3e7"/>
    <path d="m212.35,242.32c-.26,3.39-.6,12.97,4.86,16.59,8.17,5.42,23.94-6.06,28.3-9.23,3.59-2.62,6.32-5.21,8.22-7.2-13.79-.06-27.59-.11-41.38-.17Z" fill="#00589c"/>
    <path d="m210.31,242.49c-.56-.04-.92-.6-.73-1.13,1.46-4.04,7.69-18.4,22.03-17.1,16.66,1.52,30.08,14.14,31.11,17.63.98,3.33-43.18,1.3-52.41.6Z" fill="#00589c"/>
    <path d="m227.81,290.04c.68,2.65,1.35,5.29,2.03,7.94,0,0,5.94-5.49,8.98-4.87s3.55,3.37,3.55,3.37c0,0,4.16-3.38,7.25-2.57,3.09.81,4.4,3.96,4.4,3.96,0,0,4.34-.33,5.31,2.66.98,2.98.23,8.96-6.96,14.66-4.7,3.72-7.23,5.15-8.42,5.69-.65.29-1.22.72-1.7,1.23-1.62,1.73-5.37,5.41-8.73,6.35-4.43,1.24-10.17,2.03-15.19-1.13-4.02-2.52-3.04-8.32-2.49-10.53.15-.62.17-1.26.05-1.88l-3.51-17.43s-.65-2.71,6.44-5.64c4.77-1.97,7.12-2.37,8.15-2.42.39-.02.74.23.84.62Z" fill="#00589c"/>
    <ellipse cx="196.18" cy="206.04" rx="22.9" ry="19.18" transform="translate(-23.94 386.27) rotate(-85.71)" fill="#5cc4f0"/>
    <ellipse cx="196.18" cy="206.04" rx="19.48" ry="16.31" transform="translate(-23.94 386.27) rotate(-85.71)" fill="#00589c"/>
    <ellipse cx="250.55" cy="206.42" rx="9.51" ry="22.29" transform="translate(-35.18 52.32) rotate(-11.15)" fill="#5cc4f0"/>
    <ellipse cx="196.18" cy="206.04" rx="19.48" ry="16.31" transform="translate(-23.94 386.27) rotate(-85.71)" fill="#00589c"/>
    <ellipse cx="251.7" cy="206.21" rx="7.79" ry="18.8" transform="translate(-35.11 52.54) rotate(-11.15)" fill="#00589c"/>
    <ellipse cx="253.96" cy="198.69" rx="3.07" ry="5.77" transform="translate(-43.28 73.69) rotate(-15.23)" fill="#5cc4f0"/>
    <circle cx="203.33" cy="197.98" r="5.77" fill="#5cc4f0"/>
  </g>
</svg>